<svg xmlns="http://www.w3.org/2000/svg" viewBox="0 0 24 24" fill="white">
  <!-- Simplified Tria logo for favicon -->
  <path d="M12.48 0c5.431 0 8.146 0 9.833 1.687C24 3.374 24 6.09 24 11.52v.96c0 5.43 0 8.146-1.687 9.833C20.626 24 17.911 24 12.48 24h-.96c-5.43 0-8.145 0-9.832-1.687C0 20.626 0 17.911 0 12.48v-.96c0-5.43 0-8.146 1.687-9.833C3.374 0 6.09 0 11.52 0h.96zm-6.14 10.421a.23.23 0 00-.17.173v2.329c0 .618.385 1.171.964 1.386l2.3.852v5.43c0 .148 0 .223.031.271.028.041.07.071.119.082.055.012.125-.013.264-.065l2.693-.998a.283.283 0 00.282-.209V12.93a.176.176 0 00-.12-.173zm13.191-3.428a.184.184 0 00-.248-.151l-6.303 2.318a.183.183 0 00-.121.173v3.201c0 .06.03.117.079.151a.184.184 0 00.17.022l5.456-2.006c.581-.214.967-.768.967-1.387zm-13.191-3.82a.23.23 0 00-.17.173v2.329c0 .618.385 1.171.964 1.386l5.459 2.023a.184.184 0 00.17-.021.184.184 0 00.079-.152V5.682a.176.176 0 00-.12-.173z"/>
</svg>
