<svg xmlns="http://www.w3.org/2000/svg" viewBox="0 0 66.321 24" fill="#1a1a1a">
  <path d="M34.292 21.6c-2.691 0-3.926-1.29-3.926-3.953v-7.138h-2.388V7.516h2.388V3.563h3.486v3.954h3.432v2.992h-3.432v6.644c0 1.043.385 1.455 1.456 1.455h1.976v2.992h-2.992zm4.067 0V7.517h3.047l.33 2.113c.741-1.207 1.839-2.113 4.117-2.113h.742v3.184h-1.455c-2.444 0-3.295 1.757-3.295 3.926V21.6zm9.009 0V7.517h3.487V21.6zm1.73-15.923c-1.126 0-1.95-.823-1.95-1.921 0-1.099.824-1.922 1.95-1.922 1.098 0 1.949.823 1.949 1.922 0 1.098-.851 1.921-1.949 1.921zm8.218 16.088c-3.074 0-5.243-1.483-5.243-4.118 0-2.965 2.169-4.612 6.259-4.612h3.13v-.769c0-1.455-.988-2.279-2.8-2.279-1.62 0-2.664.714-2.856 1.84h-3.376c.274-2.718 2.745-4.475 6.396-4.475 3.844 0 6.095 1.784 6.095 5.134v5.243c0 .741.275.906.878.906h.522v2.965h-1.812c-1.867 0-2.581-.878-2.581-2.141v-.083c-.933 1.428-2.388 2.389-4.612 2.389zm.577-2.581c2.224 0 3.569-1.345 3.569-3.377v-.384h-3.212c-1.73 0-2.663.659-2.663 1.949 0 1.126.878 1.812 2.306 1.812zM12.48 0c5.431 0 8.146 0 9.833 1.687C24 3.374 24 6.09 24 11.52v.96c0 5.43 0 8.146-1.687 9.833C20.626 24 17.911 24 12.48 24h-.96c-5.43 0-8.145 0-9.832-1.687C0 20.626 0 17.911 0 12.48v-.96c0-5.43 0-8.146 1.687-9.833C3.374 0 6.09 0 11.52 0h.96zm-6.14 10.421a.23.23 0 00-.17.173v2.329c0 .618.385 1.171.964 1.386l2.3.852v5.43c0 .148 0 .223.031.271.028.041.07.071.119.082.055.012.125-.013.264-.065l2.693-.998a.283.283 0 00.282-.209V12.93a.176.176 0 00-.12-.173zm13.191-3.428a.184.184 0 00-.248-.151l-6.303 2.318a.183.183 0 00-.121.173v3.201c0 .06.03.117.079.151a.184.184 0 00.17.022l5.456-2.006c.581-.214.967-.768.967-1.387zm-13.191-3.82a.23.23 0 00-.17.173v2.329c0 .618.385 1.171.964 1.386l5.459 2.023a.184.184 0 00.17-.021.184.184 0 00.079-.152V5.682a.176.176 0 00-.12-.173z"/>
</svg>
